# xmcd
#
# Track frame offsets:
#	183
#	12870
#	22590
#	36303
#	48260
#	65625
#	79540
#	93848
#	104958
#	118718
#	131703
#	145918
#	158283
#	171893
#
# Disc length: 2442 seconds
#
# Revision: 1
# Processed by: cddbd v1.5.2PL0 Copyright (c) Steve Scherf et al.
# Submitted via: audiograbber 1.83.01
#
DISCID=ae09880e
DTITLE=Vario - Dat noch in hundert Jahren
DYEAR=1990
DGENRE=A Cappella
TTITLE0=Anja and Reiner - Du Bist Die Rose Vom Woertersee
TTITLE1=Jugenmusik Wattens - Erzherzog-Albrecht-Marsch
TTITLE2=MUEHLENHOF    MUSIKANTEN - Dat Noch In Hyndert Johren
TTITLE3=Menskes Choere - Jenseits Des Tales
TTITLE4=Nina and Dieter - La Pastorella
TTITLE5=Uschi Bauer - Der Zaubersee
TTITLE6=Karl Moik - Mariandl
TTITLE7=Claudia Engels - Du Kannst Nicht Treu Sein
TTITLE8=Uschi Bauer - Drei Weisse Tauben
TTITLE9=Muenchner Zwoa - A Bisserl Was Geht Immer
TTITLE10=Horst Chmela - Schau Mi Ned So Aan
TTITLE11=Rudi and Vreni - Maroni, Maroni
TTITLE12=Hellberg Duo - Drei Weisse Birken
TTITLE13=Jugenmusik Wattens - Erzherzog-Karl-Marsch
EXTD=
EXTT0=
EXTT1=
EXTT2=
EXTT3=
EXTT4=
EXTT5=
EXTT6=
EXTT7=
EXTT8=
EXTT9=
EXTT10=
EXTT11=
EXTT12=
EXTT13=
PLAYORDER=
